<?xml version="1.0" encoding="UTF-8"?>
<!-- (c) Carrd Inc. All rights reserved. All logos and trademarks are property of their respective owners. -->
<svg xmlns="http://www.w3.org/2000/svg" version="1.1" xmlns:xlink="http://www.w3.org/1999/xlink" viewBox="0 0 40 40" width="40" height="40">
	<symbol id="x" viewBox="0 0 40 40"><path d="M30.1,4h5.4L23.7,17.6L37.6,36H26.7l-8.5-11.2L8.5,36H3.1l12.6-14.5L2.4,4h11.1l7.7,10.2L30.1,4z M28.2,32.8h3L11.9,7.1H8.7 L28.2,32.8z"/></symbol>
	<symbol id="instagram" viewBox="0 0 40 40"><path d="M20,7c4.2,0,4.7,0,6.3,0.1c1.5,0.1,2.3,0.3,3,0.5C30,8,30.5,8.3,31.1,8.9c0.5,0.5,0.9,1.1,1.2,1.8c0.2,0.5,0.5,1.4,0.5,3 C33,15.3,33,15.8,33,20s0,4.7-0.1,6.3c-0.1,1.5-0.3,2.3-0.5,3c-0.3,0.7-0.6,1.2-1.2,1.8c-0.5,0.5-1.1,0.9-1.8,1.2 c-0.5,0.2-1.4,0.5-3,0.5C24.7,33,24.2,33,20,33s-4.7,0-6.3-0.1c-1.5-0.1-2.3-0.3-3-0.5C10,32,9.5,31.7,8.9,31.1 C8.4,30.6,8,30,7.7,29.3c-0.2-0.5-0.5-1.4-0.5-3C7,24.7,7,24.2,7,20s0-4.7,0.1-6.3c0.1-1.5,0.3-2.3,0.5-3C8,10,8.3,9.5,8.9,8.9 C9.4,8.4,10,8,10.7,7.7c0.5-0.2,1.4-0.5,3-0.5C15.3,7.1,15.8,7,20,7z M20,4.3c-4.3,0-4.8,0-6.5,0.1c-1.6,0-2.8,0.3-3.8,0.7 C8.7,5.5,7.8,6,6.9,6.9C6,7.8,5.5,8.7,5.1,9.7c-0.4,1-0.6,2.1-0.7,3.8c-0.1,1.7-0.1,2.2-0.1,6.5s0,4.8,0.1,6.5 c0,1.6,0.3,2.8,0.7,3.8c0.4,1,0.9,1.9,1.8,2.8c0.9,0.9,1.7,1.4,2.8,1.8c1,0.4,2.1,0.6,3.8,0.7c1.6,0.1,2.2,0.1,6.5,0.1 s4.8,0,6.5-0.1c1.6-0.1,2.9-0.3,3.8-0.7c1-0.4,1.9-0.9,2.8-1.8c0.9-0.9,1.4-1.7,1.8-2.8c0.4-1,0.6-2.1,0.7-3.8 c0.1-1.6,0.1-2.2,0.1-6.5s0-4.8-0.1-6.5c-0.1-1.6-0.3-2.9-0.7-3.8c-0.4-1-0.9-1.9-1.8-2.8c-0.9-0.9-1.7-1.4-2.8-1.8 c-1-0.4-2.1-0.6-3.8-0.7C24.8,4.3,24.3,4.3,20,4.3L20,4.3L20,4.3z"/><path d="M20,11.9c-4.5,0-8.1,3.7-8.1,8.1s3.7,8.1,8.1,8.1s8.1-3.7,8.1-8.1S24.5,11.9,20,11.9z M20,25.2c-2.9,0-5.2-2.3-5.2-5.2 s2.3-5.2,5.2-5.2s5.2,2.3,5.2,5.2S22.9,25.2,20,25.2z"/><path d="M30.6,11.6c0,1-0.8,1.9-1.9,1.9c-1,0-1.9-0.8-1.9-1.9s0.8-1.9,1.9-1.9C29.8,9.7,30.6,10.5,30.6,11.6z"/></symbol>
	<symbol id="youtube-alt" viewBox="0 0 40 40"><path d="M37.6,27.1c0,0-0.3,2.4-1.4,3.5c-1.4,1.4-2.9,1.4-3.6,1.5c-5,0.4-12.4,0.4-12.4,0.4s-9.2-0.1-12.1-0.4 c-0.8-0.1-2.6-0.1-3.9-1.5c-1.1-1.1-1.4-3.5-1.4-3.5s-0.4-2.9-0.4-5.7v-2.7c0-2.9,0.4-5.7,0.4-5.7s0.3-2.4,1.4-3.5 C5.5,8,7,8,7.7,7.9c5-0.4,12.4-0.4,12.4-0.4h0c0,0,7.5,0,12.4,0.4C33.3,8,34.8,8,36.2,9.4c1.1,1.1,1.4,3.5,1.4,3.5s0.4,2.9,0.4,5.7 v2.7C37.9,24.2,37.6,27.1,37.6,27.1z M16.5,14.6l0,9.9l9.6-5L16.5,14.6z" /></symbol>
	<symbol id="tiktok" viewBox="0 0 40 40"><path d="M36.1,11.7v5c-3.3,0-6.3-1-8.8-2.8v12.9c0,6.5-5.2,11.7-11.7,11.7c-2.4,0-4.6-0.7-6.5-2c0,0,0,0,0,0 c-3.1-2.1-5.2-5.7-5.2-9.7c0-6.5,5.2-11.7,11.7-11.7c0.5,0,1.1,0,1.6,0.1v1.4c0,0,0,0,0,0v5c-0.5-0.2-1.1-0.3-1.6-0.3 c-2.9,0-5.3,2.4-5.3,5.4c0,2.1,1.2,3.9,2.9,4.8c0.7,0.4,1.5,0.6,2.4,0.6c2.9,0,5.3-2.4,5.3-5.3V1.5h6.3v0.8c0,0.2,0.1,0.5,0.1,0.7 c0.4,2.5,1.9,4.7,4,6c0,0,0.1,0.1,0.1,0.1c0,0-0.1-0.1-0.1-0.1c1.4,0.9,3,1.3,4.7,1.3V11.7"/></symbol>
	<symbol id="kuaishou" viewBox="0 0 40 40"><path d="M29.8,18.2c-2.7,0.8-5.2,0.2-7.2-1.8c-0.1-0.1-0.2-0.2-0.3-0.4c-0.1-0.1-0.2-0.2-0.3-0.4 c-0.8,0.8-1.6,1.5-2.6,2c-1.6,0.8-3.3,1.1-5.1,0.8c-2.6-0.4-4.5-1.8-5.9-4.1c-0.5-0.8-0.8-1.8-1-2.7C7.1,9.4,7.6,7.4,8.8,5.6 c1.2-1.8,2.8-2.9,4.9-3.4c2.2-0.5,4.2-0.2,6.1,0.9C21,3.8,22,4.8,22.7,5.9c0.2,0.3,0.3,0.2,0.5,0.1c1.5-1.2,3.1-1.7,5-1.6 c3,0.2,5.6,2.3,6.4,5.2C35.5,13.2,33.6,17,29.8,18.2z M20.6,9.9c-0.2-2.8-2.6-4.8-5.3-4.6c-2.5,0.1-5.1,2.4-4.6,5.7 c0.4,2.5,2.6,4.3,5.2,4.1C18.9,15,20.8,12.5,20.6,9.9z M27.7,7.6c-2.1,0-3.8,1.7-3.8,3.8c0,2.1,1.8,3.8,3.8,3.8 c2.1,0,3.8-1.7,3.8-3.8C31.5,9.3,29.8,7.6,27.7,7.6z M13.6,24.1c0.2,0.1,0.3,0.1,0.4-0.1c0.8-2,2.2-3.3,4.3-3.8 c0.5-0.1,1-0.2,1.6-0.2c2.9,0,5.8,0,8.6,0c2.7,0,4.6,1.2,5.8,3.6c0.4,0.7,0.5,1.5,0.5,2.3c0,1.9,0,3.9-0.1,5.8 c-0.1,1.6-0.9,2.9-2.1,3.9c-1.1,0.9-2.4,1.4-3.9,1.4c-3.1,0-6.1,0-9.2,0c-1.9,0-3.4-0.8-4.5-2.2c-0.5-0.6-0.8-1.2-1.2-1.9 c-1.2,0.6-2.4,1.2-3.6,1.8c-0.7,0.3-1.4,0.7-2.1,1c-1.6,0.5-3.3-0.4-3.7-2c-0.1-0.3-0.1-0.7-0.1-1c0-2.8,0-5.6,0-8.5 c0-2.2,2.3-3.6,4.2-2.7C10.2,22.4,11.9,23.2,13.6,24.1z M16.7,30.9c0,1.7,1.4,3,3.1,3c3,0,6,0,9,0c1.4,0,2.8-1.2,2.9-2.6 c0.1-1.9,0.1-3.7,0-5.6c0-1.3-1.4-2.5-2.6-2.5c-1.6,0-3.2,0-4.8,0c0,0,0,0,0,0c-1.5,0-3,0-4.6,0c-1.5,0-2.9,1.3-3,3 C16.6,27.7,16.7,29.3,16.7,30.9z M7.3,26c0,0.9,0,1.7,0,2.6c0,0.9,0,1.8,0,2.6c0,0.7,0.6,1.1,1.3,0.8c1.6-0.8,3.2-1.6,4.8-2.4 c0.1-0.1,0.2-0.2,0.2-0.3c0-0.4,0-0.9,0-1.3c0-0.2-0.1-0.4-0.3-0.5c-1.5-0.8-3.1-1.5-4.6-2.3C7.9,24.8,7.3,25.2,7.3,26z"/></symbol>
	<symbol id="facebook" viewBox="0 0 40 40"><path d="M38,20.1c0-9.9-8.1-18-18-18S2,10.1,2,20.1s5.8,15.5,13.7,17.5v-12h-3.7v-5.5h3.7v-2.4c0-6.1,2.8-9,8.8-9s3.1.2,3.9.4v5c-.4,0-1.2,0-2.1,0-3,0-4.1,1.1-4.1,4v1.9h5.9l-1,5.5h-4.9v12.4c8.9-1.1,15.8-8.7,15.8-17.9Z"/></symbol>
	<symbol id="email" viewBox="0 0 40 40"><path d="M37.3,15.3v15.3c0,0.8-0.3,1.6-0.9,2.2c-0.6,0.6-1.4,0.9-2.2,0.9H5.8c-0.8,0-1.6-0.3-2.2-0.9s-0.9-1.4-0.9-2.2V15.3 c0.5,0.6,1.2,1.1,2,1.7c4.7,3.1,7.9,5.4,9.6,6.7c0.7,0.5,1.4,0.9,1.8,1.2c0.4,0.3,1,0.6,1.9,0.9c0.7,0.3,1.5,0.5,2.1,0.5l0,0 c0.6,0,1.4-0.2,2.1-0.5c0.7-0.3,1.4-0.6,1.9-0.9c0.4-0.3,1-0.7,1.8-1.2c2.2-1.6,5.4-3.8,9.6-6.7C36.1,16.5,36.7,15.9,37.3,15.3 L37.3,15.3z M37.3,9.6c0,1-0.3,2-0.9,2.9c-0.6,0.9-1.5,1.8-2.4,2.4c-4.9,3.3-7.9,5.4-9,6.2c-0.1,0.1-0.4,0.3-0.8,0.6 c-0.4,0.3-0.7,0.5-1,0.7c-0.3,0.2-0.6,0.4-1,0.6c-0.4,0.2-0.7,0.4-1.1,0.5c-0.4,0.1-0.6,0.2-0.9,0.2l0,0c-0.3,0-0.6-0.1-0.9-0.2 c-0.3-0.1-0.7-0.3-1.1-0.5c-0.4-0.2-0.7-0.4-1-0.6c-0.3-0.2-0.6-0.4-1-0.7c-0.4-0.3-0.7-0.5-0.8-0.6c-1.1-0.8-2.8-2-5.1-3.5 c-2.3-1.6-3.3-2.4-3.7-2.7c-0.8-0.5-1.6-1.2-2.3-2.2s-1-1.9-1-2.6c0-1,0.3-1.9,0.8-2.5c0.5-0.6,1.2-1,2.3-1h28.4 c0.8,0,1.6,0.3,2.2,0.9C37.1,8.1,37.3,8.8,37.3,9.6L37.3,9.6z"/></symbol>
	<symbol id="spotify" viewBox="0 0 40 40"><path d="M26.9,26.3c0-0.4-0.2-0.8-0.6-1c-2.6-1.5-5.6-2.3-9-2.3c-1.8,0-3.7,0.2-5.8,0.7c-0.6,0.1-0.8,0.5-0.8,1 c0,0.3,0.1,0.5,0.3,0.7c0.2,0.2,0.4,0.3,0.7,0.3c0.1,0,0.3-0.1,0.7-0.2c1.8-0.4,3.4-0.5,4.9-0.5c3,0,5.7,0.7,8,2.1 c0.3,0.1,0.5,0.2,0.7,0.2c0.3,0,0.5-0.1,0.7-0.3C26.8,26.8,26.9,26.6,26.9,26.3L26.9,26.3z M28.8,22c0-0.5-0.2-0.9-0.7-1.2 c-3.2-1.9-6.8-2.8-11-2.8c-2,0-4.1,0.3-6.1,0.8c-0.6,0.2-1,0.6-1,1.3c0,0.3,0.1,0.6,0.4,0.9c0.2,0.2,0.5,0.4,0.9,0.4 c0.1,0,0.3-0.1,0.7-0.2c1.6-0.4,3.3-0.7,5-0.7c3.7,0,7,0.8,9.8,2.5c0.3,0.2,0.6,0.3,0.8,0.3c0.3,0,0.6-0.1,0.9-0.4 C28.7,22.6,28.8,22.3,28.8,22L28.8,22z M31,17c0-0.6-0.3-1.1-0.8-1.4c-1.7-1-3.6-1.7-5.9-2.2c-2.2-0.5-4.5-0.8-6.9-0.8 c-2.7,0-5.2,0.3-7.3,0.9c-0.3,0.1-0.6,0.3-0.8,0.5c-0.2,0.2-0.3,0.6-0.3,1c0,0.4,0.1,0.8,0.4,1c0.3,0.3,0.6,0.4,1,0.4 c0.1,0,0.4-0.1,0.8-0.2c1.8-0.5,3.8-0.7,6.2-0.7c2.1,0,4.2,0.2,6.2,0.7c2,0.5,3.7,1.1,5.1,1.9c0.3,0.2,0.5,0.2,0.8,0.2 c0.4,0,0.7-0.1,1-0.4C30.8,17.8,31,17.4,31,17L31,17z M35.1,20c0,2.8-0.7,5.4-2.1,7.7c-1.4,2.4-3.3,4.2-5.6,5.6 c-2.4,1.4-4.9,2.1-7.7,2.1c-2.8,0-5.4-0.7-7.7-2.1c-2.4-1.4-4.2-3.3-5.6-5.6S4.2,22.8,4.2,20s0.7-5.4,2.1-7.7S9.5,8,11.9,6.6 s4.9-2.1,7.7-2.1c2.8,0,5.4,0.7,7.7,2.1s4.2,3.3,5.6,5.6C34.4,14.6,35.1,17.2,35.1,20z"/></symbol>
	<symbol id="deezer" viewBox="0 0 40 40"><path d="M32,9.7c.3-1.9.8-3.1,1.3-3.1h0c1,0,1.8,4.2,1.8,9.3s-.8,9.3-1.8,9.3-.8-.7-1.1-1.9c-.5,4.3-1.5,7.3-2.6,7.3s-1.7-1.8-2.2-4.6c-.4,5.4-1.3,9.2-2.4,9.2s-1.3-1.5-1.8-4c-.5,5.1-1.8,8.6-3.3,8.6s-2.8-3.5-3.3-8.6c-.5,2.5-1.1,4-1.8,4-1.1,0-2-3.8-2.4-9.2-.5,2.8-1.3,4.6-2.2,4.6s-2.1-3-2.6-7.3c-.3,1.2-.7,1.9-1.1,1.9-1,0-1.8-4.2-1.8-9.3s.8-9.3,1.8-9.3,1,1.2,1.3,3.1c.5-3.3,1.4-5.4,2.4-5.4s2.2,3,2.6,7.4c.5-3.2,1.2-5.2,2-5.2s2,4,2.4,9.6c.7-2.9,1.6-4.7,2.7-4.7s2,1.8,2.7,4.7c.3-5.6,1.3-9.6,2.4-9.6s1.5,2,2,5.2c.5-4.4,1.5-7.4,2.6-7.4s1.8,2.1,2.4,5.4ZM2.2,14.9c0-2.3.5-4.1,1-4.1s1,1.9,1,4.1-.5,4.1-1,4.1-1-1.9-1-4.1ZM35.7,14.9c0-2.3.5-4.1,1-4.1s1,1.9,1,4.1-.5,4.1-1,4.1-1-1.9-1-4.1Z"/></symbol>
	<symbol id="youtube-music" viewBox="0 0 40 40"><path d="M20,38c-9.9,0-18-8.1-18-18S10.1,2,20,2s18,8.1,18,18S29.9,38,20,38z M20,9.5C14.2,9.5,9.5,14.2,9.5,20 S14.2,30.5,20,30.5S30.5,25.8,30.5,20S25.8,9.5,20,9.5z M20,29.6c-5.3,0-9.6-4.3-9.6-9.6s4.3-9.6,9.6-9.6s9.6,4.3,9.6,9.6 S25.3,29.6,20,29.6z M16.3,14.7v10.5l8.9-5.5L16.3,14.7z"/><path d="M35.3-11.9c-0.1,0.1-0.1,0.3-0.2,0.4"/></symbol>
	<symbol id="apple" viewBox="0 0 40 40"><path d="M33.4,26.7c-0.5,1.7-1.4,3.4-2.5,5.1c-1.8,2.7-3.5,4-5.3,4c-0.7,0-1.6-0.2-2.9-0.7c-1.2-0.4-2.2-0.7-3.1-0.7 c-0.8,0-1.8,0.2-2.9,0.7c-1.1,0.5-2,0.7-2.7,0.7c-2.1,0-4.1-1.8-6.2-5.3c-2-3.6-3-7-3-10.4c0-3.1,0.8-5.7,2.3-7.7c1.5-2,3.5-3,5.8-3 c1,0,2.2,0.2,3.6,0.6c1.4,0.4,2.4,0.6,2.8,0.6c0.6,0,1.6-0.2,2.9-0.7c1.4-0.5,2.6-0.7,3.6-0.7c1.6,0,3.1,0.4,4.4,1.3 c0.7,0.5,1.4,1.2,2.1,2.1c-1.1,0.9-1.9,1.7-2.3,2.4c-0.9,1.3-1.3,2.7-1.3,4.3c0,1.7,0.5,3.2,1.4,4.6C31.1,25.4,32.2,26.3,33.4,26.7 L33.4,26.7z M25.7,2.5c0,0.8-0.2,1.8-0.6,2.8c-0.4,1-1,2-1.9,2.8c-0.7,0.7-1.5,1.2-2.2,1.5c-0.5,0.2-1.2,0.3-2.1,0.3 c0-2,0.6-3.8,1.6-5.3c1-1.5,2.7-2.5,5.1-3c0,0,0,0.1,0.1,0.2c0,0.1,0,0.2,0.1,0.2c0,0.1,0,0.1,0,0.2S25.7,2.5,25.7,2.5L25.7,2.5z"/></symbol>
	<symbol id="amazon-music" viewBox="0 0 40 40"><path d="M39.7,26.8c-0.2,0.8-0.5,1.5-0.9,2.2c-0.4,0.7-0.8,1.3-1.4,1.8c-0.1,0.1-0.3,0.2-0.4,0.2 c-0.2,0.1-0.4-0.1-0.3-0.3c0-0.2,0.1-0.3,0.2-0.5c0.3-0.8,0.6-1.5,0.8-2.3c0.2-0.5,0.3-1.1,0.3-1.7c0.1-0.4,0-0.7-0.4-0.9 c-0.3-0.1-0.7-0.2-1-0.2c-1.1-0.1-2.3,0-3.4,0.2c-0.1,0-0.3,0.1-0.4,0.1c-0.1,0-0.2,0-0.3-0.1c0-0.1,0-0.2,0-0.3 c0.1-0.1,0.3-0.3,0.5-0.4c0.7-0.5,1.6-0.7,2.4-0.9c0.9-0.2,1.8-0.2,2.7-0.1c0.5,0,0.9,0.2,1.3,0.3c0.3,0.1,0.5,0.3,0.5,0.7 c0,0,0,0.1,0,0.1c0,0.2,0,0.3,0,0.5C39.9,25.8,39.8,26.3,39.7,26.8z M38.4,20.7c-0.5,0.1-1,0.2-1.5,0.3c0,0,0,0,0-0.1 c-0.8,0-1.5-0.1-2.2-0.5c-0.9-0.5-1.4-1.3-1.6-2.3c-0.2-0.9-0.2-1.8,0-2.6c0.3-1.3,1-2.3,2.3-2.7c0.9-0.3,1.7-0.3,2.6-0.1 c0.2,0,0.3,0.1,0.5,0.1c0.2,0.1,0.4,0.2,0.4,0.5c0,0.2,0,0.4,0,0.6c0,0.1-0.1,0.2-0.2,0.2c-0.2,0-0.4-0.1-0.6-0.1 c-0.7-0.1-1.4-0.1-2,0.1c-0.6,0.2-1,0.6-1.2,1.3c-0.3,1-0.3,2-0.1,2.9c0.2,0.9,0.9,1.3,1.7,1.4c0.6,0.1,1.3,0,1.9-0.2 c0.6-0.1,0.6,0,0.6,0.4c0,0,0,0,0,0C39.1,20.5,39.1,20.5,38.4,20.7z M30.6,11.2c-0.6,0-1-0.3-1-0.9c0-0.6,0.4-1,1-1 c0.7,0,1,0.3,1,0.9C31.6,10.7,31.3,11.2,30.6,11.2z M24.7,15.5c0.5,0.3,1,0.4,1.5,0.6c0.5,0.2,1,0.4,1.4,0.7c0.7,0.4,0.9,1.2,0.8,2 c-0.1,1.1-0.8,1.7-1.7,2c-1,0.3-2,0.3-2.9,0c-0.3-0.1-0.6-0.2-0.9-0.3c-0.3-0.1-0.4-0.3-0.4-0.5c0-0.2,0-0.3,0-0.5 c0-0.1,0.1-0.2,0.2-0.2c0.2,0,0.4,0.1,0.6,0.1c0.8,0.2,1.6,0.3,2.5,0.2c0.3,0,0.6-0.2,0.9-0.4c0.5-0.6,0.3-1.3-0.4-1.6 c-0.5-0.3-1.1-0.4-1.7-0.7c-0.6-0.2-1.1-0.5-1.5-1c-0.7-0.8-0.7-2.6,0.8-3.3c0.5-0.3,1.1-0.4,1.7-0.4c0.7,0,1.4,0.2,2.1,0.4 c0.2,0.1,0.3,0.2,0.3,0.4c0,0.2,0,0.3,0,0.5c0,0.2-0.1,0.3-0.3,0.2c-0.2,0-0.4-0.1-0.6-0.2c-0.6-0.2-1.2-0.2-1.8-0.1 c-0.2,0-0.4,0.1-0.6,0.2C24.1,14.2,24.1,15.2,24.7,15.5z M31.2,20.7c-0.4,0-0.7,0-1.1,0c-0.1,0-0.2-0.1-0.2-0.2c0-0.1,0-0.2,0-0.2 c0-2.4,0-4.8,0-7.2c0-0.4,0.1-0.4,0.4-0.4c0.2,0,0.5,0,0.7,0c0.4,0,0.4,0.1,0.4,0.4c0,1.2,0,2.4,0,3.7c0,0,0,0,0,0 c0,1.2,0,2.4,0,3.5c0,0.1,0,0.2,0,0.2C31.4,20.6,31.3,20.7,31.2,20.7z M26.3,29.3c0.6-0.1,1.3-0.2,1.9-0.4c0.7-0.2,1.5-0.3,2.2-0.5 c0.9-0.3,1.8-0.5,2.7-0.8c0.8-0.3,1.6-0.6,2.4-0.9c0.2-0.1,0.4-0.1,0.6,0c0.4,0.1,0.6,0.6,0.3,0.9c-0.3,0.3-0.7,0.5-1,0.8 c-1.4,1-3,1.7-4.6,2.3c-1.3,0.5-2.7,0.9-4.1,1.2c-1,0.2-2,0.4-2.9,0.5c-0.9,0.1-1.7,0.2-2.6,0.2c-0.1,0-0.1,0-0.2,0 c-0.7,0-1.3,0-2,0c-0.4,0-0.7,0-1.1-0.1c-0.9-0.1-1.7-0.2-2.6-0.3c-1.1-0.2-2.1-0.4-3.2-0.7c-0.9-0.2-1.8-0.6-2.7-0.9 c-1.7-0.6-3.3-1.4-4.8-2.4c-1.2-0.7-2.3-1.5-3.3-2.4c-0.3-0.3-0.6-0.6-1-0.8c0,0-0.1-0.1-0.1-0.2c-0.1-0.2-0.1-0.3,0-0.5 c0.1-0.1,0.3-0.1,0.4-0.1c0.3,0.2,0.7,0.4,1,0.6c1.1,0.5,2.2,1.1,3.4,1.6c1.2,0.5,2.4,0.9,3.6,1.3c0.8,0.3,1.6,0.5,2.4,0.7 c1,0.2,2,0.4,3,0.6c0.9,0.2,1.8,0.3,2.7,0.4c1.7,0.1,3.4,0.3,5.1,0.1c0.8-0.1,1.6-0.1,2.4-0.2C24.9,29.5,25.6,29.4,26.3,29.3z M20.7,20.7c-0.2,0-0.4,0-0.6,0c-0.3,0-0.3-0.1-0.4-0.3c0-0.1-0.1-0.3-0.1-0.5c-0.6,0.4-1.1,0.7-1.7,0.9c-0.8,0.2-1.7,0.3-2.5,0 c-0.6-0.3-0.9-0.7-1.1-1.3c-0.1-0.3-0.1-0.6-0.1-0.9c0-1.8,0-3.6,0-5.5c0-0.3,0.1-0.4,0.4-0.4c0.3,0,0.5,0,0.8,0 c0.3,0,0.3,0.1,0.3,0.3c0,0.3,0,0.7,0,1c0,1.4,0,2.7,0,4.1c0,0.2,0,0.5,0.1,0.7c0.1,0.5,0.6,0.8,1.1,0.8c0.5,0,1-0.1,1.5-0.3 c0.3-0.1,0.5-0.3,0.8-0.4c0.2-0.1,0.2-0.2,0.2-0.3c0-1.9,0-3.7,0-5.6c0-0.4,0.1-0.5,0.5-0.5c0.3,0,0.5,0,0.8,0 c0.3,0,0.4,0.1,0.4,0.4c0,1.1,0,2.2,0,3.3c0,1.3,0,2.6,0,3.9C21.1,20.6,21.1,20.7,20.7,20.7z M12,20.7c-0.3,0-0.6,0-0.9,0 c-0.3,0-0.3-0.1-0.3-0.3c0-1.7,0-3.4,0-5.2c0-0.4-0.1-0.8-0.3-1.2c-0.2-0.3-0.6-0.4-0.9-0.4c-0.8,0-1.5,0.2-2.2,0.6 c-0.1,0.1-0.1,0.2-0.1,0.3c0,1.9,0,3.8,0,5.6c0,0.1,0,0.2,0,0.2c0,0.2-0.1,0.3-0.3,0.3c-0.3,0-0.7,0-1,0c-0.2,0-0.3-0.1-0.3-0.2 c0-0.1,0-0.2,0-0.3c0-1.7,0-3.3,0-5c0-0.2,0-0.5-0.1-0.7c-0.2-0.6-0.6-0.8-1.2-0.8c-0.7,0-1.4,0.3-2,0.6c-0.1,0.1-0.2,0.1-0.2,0.3 c0,1.9,0,3.9,0,5.8c0,0.3-0.1,0.4-0.4,0.4c-0.3,0-0.6,0-0.8,0c-0.2,0-0.3-0.1-0.3-0.3c0-0.1,0-0.3,0-0.4c0-2.3,0-4.6,0-6.9 c0-0.4,0.1-0.4,0.5-0.4c0.2,0,0.4,0,0.6,0c0.3,0,0.3,0.1,0.4,0.3c0,0.1,0,0.3,0.1,0.4c0.5-0.2,1-0.5,1.5-0.7 c0.8-0.3,1.7-0.4,2.6-0.1c0.3,0.1,0.6,0.4,0.8,0.7c0.1,0.2,0.2,0.2,0.3,0.1c0.3-0.2,0.6-0.4,1-0.5c0.8-0.4,1.7-0.5,2.6-0.4 c0.8,0.2,1.5,0.7,1.6,1.7c0,0.2,0.1,0.5,0.1,0.8c0,1.8,0,3.6,0,5.3c0,0.1,0,0.1,0,0.2C12.2,20.6,12.1,20.7,12,20.7z"/></symbol>
	<symbol id="tidal" viewBox="0 0 40 40"><path d="M40,16l-6.7,6.7l-6.6-6.6l-6.4,6.4l6.5,6.5L20,35.8L13.3,29l6.5-6.5l-6.4-6.4l-6.6,6.6L0,16l6.7-6.7l6.6,6.6 L20,9.2l6.6,6.6l6.6-6.6L40,16z"/></symbol>
	<symbol id="anghami" viewBox="0 0 40 40"><path d="M2,20.8c0-0.5,0-1.1,0-1.6c0-0.2,0.1-0.4,0.1-0.6c0.1-1.2,0.3-2.5,0.7-3.7c1.1-3.7,3.1-6.7,6.1-9C11.3,4,14,2.8,17,2.3 c0.6-0.1,1.3-0.2,1.9-0.3c0.7,0,1.5,0,2.2,0c0.2,0,0.4,0.1,0.6,0.1c1.3,0.1,2.5,0.4,3.7,0.7C29.1,4,32,6.1,34.3,9.2 c1.9,2.5,3.1,5.4,3.5,8.6c0.1,0.5,0.1,0.9,0.2,1.4c0,0.5,0,1.1,0,1.6c0,0.2-0.1,0.3-0.1,0.5c-0.2,2.3-0.7,4.6-1.8,6.6 c-2.9,5.6-7.6,9-13.9,9.9c-0.5,0.1-0.9,0.1-1.4,0.2c-0.6,0-1.2,0-1.8,0c-0.2,0-0.3-0.1-0.5-0.1c-3-0.2-5.8-1.2-8.4-2.8 C5.6,32,2.9,27.7,2.2,22.2C2.1,21.8,2.1,21.3,2,20.8z M4.8,20c0,8.3,6.8,15.2,15.2,15.2c8.3,0,15.2-6.8,15.2-15.2 c0-8.3-6.7-15.2-15.2-15.1C11.5,4.8,4.8,11.7,4.8,20z M16.6,27.7c0,0.3,0,0.6-0.2,0.9c-0.3,0.7-1.1,1-1.8,0.7 c-3.2-1.2-4.2-5.3-1.9-7.9c0.4-0.4,0.8-0.8,1.2-1.2c0.4-0.3,0.4-0.3,0-0.7c-0.4-0.4-0.9-0.8-1.2-1.2c-2.2-2.6-1.2-6.6,2-7.7 c1-0.4,2,0.3,2,1.4C16.7,14.6,16.7,25.1,16.6,27.7z M20.6,27.9c0,0.6-0.3,1-0.9,1.2c-0.5,0.1-1-0.2-1.2-0.6 c-0.1-0.2-0.1-0.3-0.1-0.5c0-4.7,0-9.3,0-14c0-0.6,0-1.2,0-1.8c0-0.6,0.4-1,0.9-1.1c0.5-0.1,1,0.2,1.2,0.7c0.1,0.2,0.1,0.3,0.1,0.5 C20.6,14.8,20.6,25.2,20.6,27.9z M24.5,24.3c0,0.9-0.8,1.4-1.5,1.1c-0.4-0.2-0.7-0.5-0.7-1c0-1.7,0-3.4,0-5.1c0-1.2,0-2.4,0-3.5 c0-0.8,0.6-1.3,1.3-1.2c0.5,0.1,0.9,0.5,0.9,1.1C24.6,17.1,24.5,22.9,24.5,24.3z M26.3,20c0-0.2,0-0.4,0-0.7c0-0.6,0.5-1.1,1.1-1.1 c0.6,0,1.1,0.4,1.1,1c0,0.5,0,1,0,1.5c0,0.6-0.5,1.1-1.2,1.1c-0.6,0-1-0.5-1.1-1.1C26.3,20.4,26.3,20.2,26.3,20 C26.3,20,26.3,20,26.3,20z"/></symbol>
	<symbol id="soundcloud" viewBox="0 0 40 40"><path d="M13.8,27.4l0.3-4.2L13.8,14c0-0.1-0.1-0.2-0.1-0.3c-0.1-0.1-0.2-0.1-0.3-0.1c-0.1,0-0.2,0-0.3,0.1C13.1,13.8,13,13.9,13,14 l-0.2,9.2l0.2,4.2c0,0.1,0.1,0.2,0.1,0.3c0.1,0.1,0.2,0.1,0.3,0.1C13.7,27.8,13.8,27.7,13.8,27.4z M18.8,26.9l0.2-3.7l-0.2-10.3 c0-0.2-0.1-0.3-0.2-0.4c-0.1-0.1-0.2-0.1-0.3-0.1s-0.2,0-0.3,0.1c-0.1,0.1-0.2,0.2-0.2,0.4l0,0.1l-0.2,10.1c0,0,0.1,1.4,0.2,4.1v0 c0,0.1,0,0.2,0.1,0.3c0.1,0.1,0.2,0.2,0.4,0.2c0.1,0,0.2-0.1,0.3-0.2c0.1-0.1,0.2-0.2,0.2-0.4L18.8,26.9z M1.2,20.9l0.3,2.2 l-0.3,2.2c0,0.1-0.1,0.2-0.2,0.2c-0.1,0-0.1-0.1-0.2-0.2l-0.3-2.2l0.3-2.2c0-0.1,0.1-0.2,0.2-0.2S1.2,20.8,1.2,20.9z M2.7,19.5 l0.4,3.6l-0.4,3.6c0,0.1-0.1,0.2-0.2,0.2c-0.1,0-0.2-0.1-0.2-0.2L2,23.2l0.4-3.6c0-0.1,0.1-0.2,0.2-0.2C2.6,19.4,2.7,19.4,2.7,19.5z M4.2,18.9l0.4,4.3l-0.4,4.2c0,0.1-0.1,0.2-0.2,0.2c-0.1,0-0.2-0.1-0.2-0.2l-0.4-4.2l0.4-4.3c0-0.1,0.1-0.2,0.2-0.2 C4.2,18.7,4.2,18.7,4.2,18.9z M5.8,18.8l0.4,4.4l-0.4,4.3c0,0.2-0.1,0.2-0.2,0.2c-0.1,0-0.2-0.1-0.2-0.2L5,23.2l0.4-4.4 c0-0.2,0.1-0.2,0.2-0.2C5.7,18.5,5.8,18.6,5.8,18.8z M7.4,19.1l0.4,4.1l-0.4,4.3c0,0.2-0.1,0.3-0.3,0.3c-0.1,0-0.1,0-0.2-0.1 c-0.1-0.1-0.1-0.1-0.1-0.2l-0.3-4.3l0.3-4.1c0-0.1,0-0.1,0.1-0.2C7,18.8,7,18.8,7.1,18.8C7.3,18.8,7.4,18.9,7.4,19.1L7.4,19.1z M9,16.5l0.4,6.7L9,27.5c0,0.1,0,0.2-0.1,0.2c-0.1,0.1-0.1,0.1-0.2,0.1c-0.2,0-0.3-0.1-0.3-0.3l-0.3-4.3l0.3-6.7 c0-0.2,0.1-0.3,0.3-0.3c0.1,0,0.1,0,0.2,0.1S9,16.4,9,16.5z M10.5,15l0.3,8.2l-0.3,4.3c0,0.1,0,0.2-0.1,0.2 c-0.1,0.1-0.1,0.1-0.2,0.1c-0.2,0-0.3-0.1-0.3-0.3l-0.3-4.3L9.9,15c0-0.2,0.1-0.3,0.3-0.3c0.1,0,0.2,0,0.2,0.1 C10.5,14.8,10.5,14.9,10.5,15z M12.2,14.3l0.3,8.9l-0.3,4.2c0,0.2-0.1,0.4-0.4,0.4c-0.2,0-0.3-0.1-0.4-0.4l-0.3-4.2l0.3-8.9 c0-0.1,0-0.2,0.1-0.3c0.1-0.1,0.2-0.1,0.2-0.1c0.1,0,0.2,0,0.3,0.1C12.1,14.1,12.2,14.2,12.2,14.3z M18.8,27.3L18.8,27.3L18.8,27.3z M15.4,14.2l0.3,8.9l-0.3,4.2c0,0.1,0,0.2-0.1,0.3c-0.1,0.1-0.2,0.1-0.3,0.1c-0.1,0-0.2,0-0.3-0.1s-0.1-0.2-0.1-0.3l-0.2-4.2 l0.2-8.9c0-0.1,0-0.2,0.1-0.3c0.1-0.1,0.2-0.1,0.3-0.1c0.1,0,0.2,0,0.3,0.1C15.4,14,15.4,14.1,15.4,14.2L15.4,14.2z M17.1,14.6 l0.2,8.6l-0.2,4.1c0,0.1,0,0.2-0.1,0.3c-0.1,0.1-0.2,0.1-0.3,0.1c-0.1,0-0.2,0-0.3-0.1c-0.1-0.1-0.1-0.2-0.2-0.3L16,23.2l0.2-8.6 c0-0.1,0.1-0.3,0.2-0.4c0.1-0.1,0.2-0.1,0.3-0.1c0.1,0,0.2,0,0.3,0.1C17.1,14.3,17.1,14.4,17.1,14.6z M20.7,23.2l-0.2,4 c0,0.2-0.1,0.3-0.2,0.4c-0.1,0.1-0.2,0.2-0.4,0.2c-0.1,0-0.3-0.1-0.4-0.2c-0.1-0.1-0.2-0.2-0.2-0.4l-0.1-2l-0.1-2L19.4,12V12 c0-0.2,0.1-0.3,0.2-0.4c0.1-0.1,0.2-0.1,0.3-0.1c0.1,0,0.2,0,0.3,0.1c0.2,0.1,0.2,0.2,0.3,0.5L20.7,23.2z M39.4,22.9 c0,1.4-0.5,2.5-1.4,3.5c-0.9,1-2,1.4-3.4,1.4H21.4c-0.1,0-0.3-0.1-0.4-0.2c-0.1-0.1-0.2-0.2-0.2-0.4V11.5c0-0.3,0.2-0.5,0.5-0.6 c1-0.4,2-0.6,3-0.6c2.2,0,4.1,0.8,5.7,2.3c1.6,1.5,2.5,3.4,2.7,5.7c0.6-0.3,1.2-0.4,1.8-0.4c1.3,0,2.4,0.5,3.4,1.5 C38.9,20.3,39.4,21.5,39.4,22.9L39.4,22.9z"/></symbol>
	<symbol id="globe" viewBox="0 0 40 40"><path d="M20,3C10.6,3,3,10.6,3,20s7.6,17,17,17s17-7.6,17-17S29.4,3,20,3z M34.8,18.9h-6.2c-0.1-2.2-0.3-4.2-0.8-6.1 c1.5-0.4,3-0.9,4.2-1.5c0.6,0.9,1.2,1.8,1.6,2.9C34.3,15.7,34.7,17.3,34.8,18.9z M25.7,26.7c-1.5-0.3-3.1-0.4-4.6-0.5v-5.1h5.4 c-0.1,1.8-0.3,3.5-0.6,5.1C25.8,26.3,25.8,26.5,25.7,26.7z M14.2,26.2c-0.3-1.6-0.6-3.3-0.6-5.1h5.4v5.1c-1.6,0-3.2,0.2-4.6,0.5 C14.2,26.5,14.2,26.3,14.2,26.2z M14.3,13.3c1.5,0.3,3.1,0.4,4.6,0.5v5.1h-5.4c0.1-1.8,0.3-3.5,0.6-5.1 C14.2,13.7,14.2,13.5,14.3,13.3z M21.1,5.4C21.4,5.6,21.7,5.7,22,6c0.8,0.7,1.6,1.7,2.2,3c0.4,0.7,0.7,1.5,0.9,2.3 c-1.3,0.2-2.7,0.4-4,0.4V5.4z M18,6c0.3-0.3,0.6-0.4,0.9-0.6v6.2c-1.4,0-2.8-0.2-4-0.4c0.3-0.8,0.6-1.6,0.9-2.3 C16.5,7.7,17.2,6.7,18,6z M18.9,28.4v6.2c-0.3-0.1-0.6-0.3-0.9-0.6c-0.8-0.7-1.6-1.7-2.2-3c-0.4-0.7-0.7-1.5-0.9-2.3 C16.2,28.6,17.5,28.4,18.9,28.4z M22,34c-0.3,0.3-0.6,0.4-0.9,0.6v-6.2c1.4,0,2.8,0.2,4,0.4c-0.3,0.8-0.6,1.6-0.9,2.3 C23.5,32.3,22.8,33.3,22,34z M21.1,18.9v-5.1c1.6,0,3.2-0.2,4.6-0.5c0,0.2,0.1,0.4,0.1,0.5c0.3,1.6,0.6,3.3,0.6,5.1H21.1z M30.5,9.5 c0,0,0.1,0.1,0.1,0.1c-1,0.4-2.2,0.8-3.4,1.1c-0.6-1.9-1.4-3.5-2.4-4.8c0.3,0.1,0.6,0.2,0.9,0.3C27.5,7.1,29.1,8.1,30.5,9.5z M14.2,6.3c0.3-0.1,0.6-0.2,0.9-0.3c-0.9,1.3-1.7,2.9-2.4,4.8c-1.2-0.3-2.3-0.7-3.4-1.1c0,0,0.1-0.1,0.1-0.1 C10.9,8.1,12.5,7.1,14.2,6.3z M7.9,11.4c1.3,0.6,2.7,1.1,4.2,1.5c-0.4,1.9-0.7,3.9-0.8,6.1H5.2c0.1-1.6,0.5-3.2,1.1-4.7 C6.8,13.2,7.3,12.3,7.9,11.4z M5.2,21.1h6.2c0.1,2.2,0.3,4.2,0.8,6.1c-1.5,0.4-3,0.9-4.2,1.5c-0.6-0.9-1.2-1.8-1.6-2.9 C5.7,24.3,5.3,22.7,5.2,21.1z M9.5,30.5c0,0-0.1-0.1-0.1-0.1c1-0.4,2.2-0.8,3.4-1.1c0.6,1.9,1.4,3.5,2.4,4.8 c-0.3-0.1-0.6-0.2-0.9-0.3C12.5,32.9,10.9,31.9,9.5,30.5z M25.8,33.7c-0.3,0.1-0.6,0.2-0.9,0.3c0.9-1.3,1.7-2.9,2.4-4.8 c1.2,0.3,2.3,0.7,3.4,1.1c0,0-0.1,0.1-0.1,0.1C29.1,31.9,27.5,32.9,25.8,33.7z M32.1,28.6c-1.3-0.6-2.7-1.1-4.2-1.5 c0.4-1.9,0.7-3.9,0.8-6.1h6.2c-0.1,1.6-0.5,3.2-1.1,4.7C33.2,26.8,32.7,27.7,32.1,28.6z"/></symbol>
	<symbol id="message-alt" viewBox="0 0 40 40"><path d="M35.7,13c-1.6-2-3.8-3.5-6.5-4.7c-2.8-1.1-5.8-1.7-9-1.7s-6.3,0.6-9,1.7C8.3,9.4,6.1,11,4.5,13 c-1.6,2-2.4,4.1-2.4,6.5c0,2,0.6,3.9,1.8,5.7c1.2,1.8,2.9,3.2,5,4.4c-0.1,0.5-0.3,1-0.5,1.5c-0.2,0.5-0.4,0.9-0.5,1.2 c-0.2,0.3-0.4,0.7-0.7,1c-0.3,0.4-0.5,0.6-0.6,0.8c-0.1,0.2-0.4,0.4-0.7,0.8c-0.3,0.4-0.5,0.6-0.6,0.7c0,0-0.1,0.1-0.2,0.2 C5,35.8,5,35.8,5,35.8L4.8,36c-0.1,0.1-0.1,0.2-0.1,0.2c0,0,0,0.1,0,0.2c0,0.1,0,0.2,0,0.2v0c0.1,0.2,0.2,0.4,0.3,0.6 c0.2,0.1,0.3,0.2,0.5,0.2h0.1C6.6,37.3,7.3,37.2,8,37c3.5-0.9,6.6-2.5,9.2-4.9c1,0.1,2,0.2,2.9,0.2c3.3,0,6.3-0.6,9-1.7 c2.8-1.1,4.9-2.7,6.5-4.7c1.6-2,2.4-4.1,2.4-6.5C38.1,17.1,37.3,14.9,35.7,13z M33.5,24.6c-1.4,1.6-3.3,2.8-5.7,3.8 c-2.4,0.9-4.9,1.4-7.7,1.4c-0.8,0-1.7-0.1-2.6-0.2l-1.1-0.1l-0.9,0.8c-1.6,1.4-3.5,2.6-5.5,3.4c0.6-1.1,1.1-2.2,1.4-3.5l0.5-1.9 l-1.7-1c-1.7-1-3.1-2.2-4-3.5c-1-1.4-1.4-2.8-1.4-4.3c0-1.8,0.7-3.5,2.1-5.1c1.4-1.6,3.3-2.8,5.7-3.8s4.9-1.4,7.7-1.4 s5.3,0.5,7.7,1.4s4.3,2.2,5.7,3.8c1.4,1.6,2.1,3.3,2.1,5.1C35.6,21.3,34.9,23,33.5,24.6z" /></symbol>
</svg>
